<?xml version="1.0" encoding="utf-8"?>
<!-- Generator: Adobe Illustrator 24.3.0, SVG Export Plug-In . SVG Version: 6.00 Build 0)  -->
<svg version="1.1" id="_x32_cf41747-0c0c-4d70-aad4-093c093adad4"
	 xmlns="http://www.w3.org/2000/svg" xmlns:xlink="http://www.w3.org/1999/xlink" x="0px" y="0px" viewBox="0 0 1022.8 813.2"
	 style="enable-background:new 0 0 1022.8 813.2;" xml:space="preserve">
<style type="text/css">
	.st0{fill:#6C63FF;}
	.st1{fill:#444053;}
	.st2{fill:#D5D6DB;}
	.st3{opacity:0.1;enable-background:new    ;}
	.st4{opacity:0.3;fill:#FFFFFF;enable-background:new    ;}
	.st5{fill:#3A3768;}
	.st6{opacity:0.45;fill:#FFFFFF;enable-background:new    ;}
	.st7{opacity:0.1;fill:#6C63FF;enable-background:new    ;}
	.st8{fill:url(#SVGID_1_);}
	.st9{fill:#BE6F72;}
	.st10{fill:#3E373A;}
	.st11{fill:#4B4B5B;}
	.st12{opacity:2.000000e-02;enable-background:new    ;}
	.st13{fill:#E7C7CA;}
	.st14{fill:#C3C7D9;}
	.st15{opacity:0.1;}
	.st16{opacity:0.1;fill:none;stroke:#000000;stroke-miterlimit:10;enable-background:new    ;}
	.st17{fill:#FFD037;}
	.st18{fill:#65617D;}
	.st19{fill:#9D9CB5;}
</style>
<polygon class="st0" points="549.4,629.9 273.9,628.5 246.5,564.3 343.3,557.3 326.5,486.9 517.9,462.1 334.6,398.4 350.8,394.5 
	645.6,442.6 629.4,552.5 606.2,612.9 "/>
<path class="st0" d="M278.1,601.7c0,0,16.9-2.7,27,9.2c0,0-7.4,5.9-23.4-2.3L278.1,601.7z"/>
<path class="st0" d="M276.4,601.4c0,0-10.8,13.3-5.5,28.1c0,0,8.8-3.5,9.7-21.4L276.4,601.4z"/>
<path class="st0" d="M266.7,579.6c0,0,6.8-12.4,33.8,5c0,0-3.6,8.3-15.6,7.7C273,591.5,269.8,586.1,266.7,579.6z"/>
<path class="st0" d="M264.9,578.7c0,0-14-1.6-15.4,30.5c0,0,8.9,1.8,15.2-8.3C271.1,590.7,268.5,585,264.9,578.7z"/>
<path class="st0" d="M398.2,584.3c0,0-0.1-23.7-36.8-22.1c0,0-0.6,21.4,30.8,27.6L398.2,584.3z"/>
<path class="st0" d="M420.2,558c0,0-7.5-27-43.7-19.8c0,0,2,23.3,38.3,26.1L420.2,558z"/>
<path class="st0" d="M435.5,530.7c0,0-10.9-26.5-46.7-19.3c0,0,10.9,23.8,44.7,24.1L435.5,530.7z"/>
<path class="st0" d="M449.9,504c0,0-10.8-27.4-45.3-20c0,0,14.2,26.1,43.4,24.6L449.9,504z"/>
<path class="st0" d="M458.5,478.5c0,0-9.5-33.4-41.7-26.8c0,0,12.3,30.5,39.7,31.6L458.5,478.5z"/>
<path class="st0" d="M465.9,447.6c0,0-10.7-33.7-43.1-24.7c0,0,16,32,41.2,29.3L465.9,447.6z"/>
<path class="st0" d="M469.6,418.8c0,0-15.2-33.8-40.9-33.5c0,0,15.7,35.7,39.4,40.1L469.6,418.8z"/>
<path class="st0" d="M471,390.7c0,0-16.9-40.7-37.6-38c0,0,12,31.1,37.4,44.2L471,390.7z"/>
<path class="st0" d="M467.4,352.9c0,0-15.5-33.9-36.3-35.7c0,0,11.5,33.3,36.6,44.4L467.4,352.9z"/>
<path class="st0" d="M467.1,329.4c0,0-12.4-27.6-22.2-27c0,0,6.1,27.9,21.5,31.9L467.1,329.4z"/>
<path class="st0" d="M468.8,296.5c0,0-12.9-36.8-26.8-40.1c0,0,4.6,30,25.7,42.9L468.8,296.5z"/>
<path class="st0" d="M470.4,258.4c0,0-12.7-29.4-24.1-34.1c0,0,5.3,34.4,22.2,41.1L470.4,258.4z"/>
<path class="st0" d="M472.4,233.4l-2.7-51.4c0,0-17.1,38.4,2,60.4L472.4,233.4z"/>
<path class="st0" d="M483.7,182.6c0,0,11.4-37.2,14.8-39.2c0,0-27,23.7-21.2,55.1L483.7,182.6z"/>
<path class="st0" d="M399.2,584.1c0,0,25.9-2.5,28.2,30.8c0,0-23.4,3-33.6-24.8L399.2,584.1z"/>
<path class="st0" d="M421.3,557.1c0,0,30.3,0.6,30.9,34.7c0,0-25,3.6-36.3-28.4L421.3,557.1z"/>
<path class="st0" d="M436,532.9c0,0,26.4-11,46.7,19.3c0,0-24.5,9.1-48.7-14.5L436,532.9z"/>
<path class="st0" d="M450.6,504.2c0,0,27-11.8,46.2,17.9c0,0-28.5,8.5-48.1-13.3L450.6,504.2z"/>
<path class="st0" d="M458.2,479.2c0,0,24.9-22.7,48.7,1.3c0,0-25.9,18.6-49.5,3.9L458.2,479.2z"/>
<path class="st0" d="M464.3,446.8c0,0,25.1-23.3,48.8,2.1c0,0-28.8,18.9-49.3,2.8L464.3,446.8z"/>
<path class="st0" d="M466.7,417.8c0,0,18.2-29.3,43.6-22.1c0,0-18.9,31.1-42.7,29.2L466.7,417.8z"/>
<path class="st0" d="M464.3,384.8c0,0,17.7-37.1,38.3-30.1c0,0-12.6,28.5-38.3,36.4L464.3,384.8z"/>
<path class="st0" d="M466.8,353c0,0,19-29.1,39.7-25c0,0-15,29.6-41,33.5L466.8,353z"/>
<path class="st0" d="M466.2,329.8c0,0,10.8-30,20.6-31.5c0,0-4.6,29-19.6,36.1L466.2,329.8z"/>
<path class="st0" d="M466.8,295.4c0,0,15.6-33.2,29.7-32.9c0,0-6.9,28.5-28.8,35.9L466.8,295.4z"/>
<path class="st0" d="M467.6,260.4c0,0,11.5-27.5,22.8-30.4c0,0-3.9,33.7-20.5,37.8L467.6,260.4z"/>
<path class="st0" d="M474,232.4l27.4-42.3c0,0-4.1,42.3-31.2,50.4L474,232.4z"/>
<path class="st0" d="M490.8,186.2c0,0,34.3-21.9,35.3-25.5c0,0-15.6,31.3-49.4,36.2L490.8,186.2z"/>
<path class="st0" d="M492.7,175.2c0,0,44-28.1,54.4-26c0,0-33.9-5.3-55.2,23.9L492.7,175.2z"/>
<path class="st1" d="M468.5,265.8l1.5,0.2c2.8-55.3,11.2-87.7,23.7-91.5l-0.6-1.3C479.9,177.1,471.4,209.2,468.5,265.8z"/>
<path class="st1" d="M465.4,382.9l1.7-0.1c0.1-4.5,0.2-9.1,0.2-13.6c-0.2-39.6,0.6-76.1,2.6-103.6l-1-1.1
	c-2,27.6-3.5,65.2-3.3,104.9C465.6,373.8,465.6,378.4,465.4,382.9z"/>
<path class="st1" d="M316.2,645.1c0.4-0.1,39.4-15.6,77.8-53.6c22.5-22.2,40.6-47.9,53.5-76.1c16.1-35.2,24-78.8,24-121.3l-2.3,1
	c-0.1,95.4-42.4,159.7-77.5,194.4c-38.1,37.6-76.6,52.9-77,53.1L316.2,645.1z"/>
<path class="st2" d="M706.6,578.7c0,0-18.2,22.3-3.8,55.9l-145.7,63.2l-14,2.9l-6.4-28.2l4.3-35.6v-19.4L706.6,578.7z"/>
<polygon class="st0" points="246.5,564.3 448.2,527.6 715.4,570.1 549.4,629.9 "/>
<polygon class="st0" points="246.5,564.3 448.2,527.6 715.4,570.1 549.4,629.9 "/>
<path class="st0" d="M246.5,564.3c0,0-18.9,35.7,2.9,68.7l299,64.8c0,0-18.6-28.5,1-68L246.5,564.3z"/>
<path class="st3" d="M246.5,564.3c0,0-18.9,35.7,2.9,68.7l299,64.8c0,0-18.6-28.5,1-68L246.5,564.3z"/>
<path class="st3" d="M255.4,576.7c0,0-10.8,26.1,0,43.1"/>
<path class="st0" d="M548.5,697.9l166.9-71.2c0,0,9.3,2,3.3,8.9c-6,6.8-167,69.2-167,69.2l-302.3-71.6L548.5,697.9z"/>
<path class="st3" d="M548.5,697.9l166.9-71.2c0,0,9.3,2,3.3,8.9c-6,6.8-167,69.2-167,69.2l-302.3-71.6L548.5,697.9z"/>
<path class="st3" d="M534.8,637.1c0,0-16.1,19.3,0,48.3"/>
<rect x="538.7" y="648.8" transform="matrix(0.9486 -0.3165 0.3165 0.9486 -175.8095 215.8904)" class="st3" width="76.1" height="0.8"/>
<rect x="537.6" y="650.8" transform="matrix(0.9347 -0.3554 0.3554 0.9347 -193.3347 250.0854)" class="st3" width="92.8" height="0.8"/>
<rect x="537.1" y="654.6" transform="matrix(0.9255 -0.3788 0.3788 0.9255 -204.0804 272.6371)" class="st3" width="107.5" height="0.8"/>
<rect x="536.8" y="656.2" transform="matrix(0.9113 -0.4117 0.4117 0.9113 -217.2214 304.6792)" class="st3" width="123.8" height="0.8"/>
<rect x="537.5" y="657.8" transform="matrix(0.9163 -0.4005 0.4005 0.9163 -212.9773 297.4829)" class="st3" width="135.4" height="0.8"/>
<rect x="538.4" y="658.3" transform="matrix(0.918 -0.3965 0.3965 0.918 -210.429 299.5899)" class="st3" width="162" height="0.8"/>
<polygon class="st4" points="321.5,568.3 463.1,538.5 549.4,555 433.3,592.4 "/>
<path class="st0" d="M715.4,570.1c0,0,7.3,3,3,7.5s-169,52.2-169,52.2L715.4,570.1z"/>
<path class="st2" d="M786.6,501.3c0,0-18.2,22.3-3.8,55.9l-145.7,63.2l-14,2.9l-6.4-28.2l4.4-35.5v-19.5L786.6,501.3z"/>
<polygon class="st5" points="326.5,486.9 528.1,450.2 795.3,492.7 629.4,552.5 "/>
<path class="st5" d="M326.4,486.9c0,0-18.9,35.7,2.9,68.7l299,64.8c0,0-18.6-28.5,1-68L326.4,486.9z"/>
<path class="st3" d="M326.4,486.9c0,0-18.9,35.7,2.9,68.7l299,64.8c0,0-18.6-28.5,1-68L534.8,532L326.4,486.9z"/>
<path class="st3" d="M335.4,499.3c0,0-10.8,26.1,0,43.1"/>
<path class="st5" d="M628.4,620.4l167-71.2c0,0,9.3,2,3.3,8.9c-6,6.8-167,69.2-167,69.2l-302.3-71.6L628.4,620.4z"/>
<path class="st3" d="M628.4,620.4l167-71.2c0,0,9.3,2,3.3,8.9c-6,6.8-167,69.2-167,69.2l-302.3-71.6L628.4,620.4z"/>
<path class="st3" d="M614.7,559.7c0,0-16.1,19.3,0,48.3"/>
<rect x="618.6" y="571.4" transform="matrix(0.9486 -0.3165 0.3165 0.9486 -147.2018 237.2077)" class="st3" width="76.1" height="0.8"/>
<rect x="617.5" y="573.4" transform="matrix(0.9347 -0.3554 0.3554 0.9347 -160.5984 273.4438)" class="st3" width="92.8" height="0.8"/>
<rect x="617" y="577.2" transform="matrix(0.9255 -0.3788 0.3788 0.9255 -168.7933 297.1447)" class="st3" width="107.5" height="0.8"/>
<rect x="616.7" y="578.8" transform="matrix(0.9113 -0.4117 0.4117 0.9113 -178.2592 330.7224)" class="st3" width="123.8" height="0.8"/>
<rect x="617.4" y="580.4" transform="matrix(0.9163 -0.4005 0.4005 0.9163 -175.273 323.0124)" class="st3" width="135.4" height="0.8"/>
<rect x="618.3" y="580.9" transform="matrix(0.918 -0.3965 0.3965 0.918 -173.1731 324.9366)" class="st3" width="162" height="0.8"/>
<polygon class="st6" points="401.4,490.8 543.1,461.1 629.4,477.6 513.3,515 "/>
<path class="st5" d="M795.3,492.7c0,0,7.3,3,3,7.5c-4.3,4.6-169,52.2-169,52.2L795.3,492.7z"/>
<path class="st2" d="M794.1,412.7c0,0-18.2,40-3.8,73.7l-145.7,45.5l-13.9,3l-6.4-28.2l4.3-35.6v-19.5L794.1,412.7z"/>
<polygon class="st0" points="334.1,398.3 535.7,361.6 802.9,404.1 637,463.9 "/>
<path class="st0" d="M334.1,398.3c0,0-18.9,35.7,2.8,68.7l299,64.8c0,0-18.6-28.5,1-68L334.1,398.3z"/>
<path class="st3" d="M334.1,398.3c0,0-18.9,35.7,2.8,68.7l299,64.8c0,0-18.6-28.5,1-68L334.1,398.3z"/>
<path class="st3" d="M343,410.7c0,0-10.8,26.1,0,43.1"/>
<path class="st0" d="M636,531.9l166.9-53.5c0,0,9.3,2,3.3,8.9s-167,51.5-167,51.5l-302.3-71.6L636,531.9z"/>
<path class="st3" d="M636,531.9l166.9-53.5c0,0,9.3,2,3.3,8.9s-167,51.5-167,51.5l-302.3-71.6L636,531.9z"/>
<path class="st3" d="M622.3,471.1c0,0-16.1,19.3,0,48.3"/>
<rect x="626.2" y="482.8" transform="matrix(0.9486 -0.3165 0.3165 0.9486 -118.7803 235.0607)" class="st3" width="76.1" height="0.8"/>
<rect x="625.1" y="484.8" transform="matrix(0.9347 -0.3554 0.3554 0.9347 -128.6227 270.3603)" class="st3" width="92.8" height="0.8"/>
<rect x="624.6" y="488.6" transform="matrix(0.9255 -0.3788 0.3788 0.9255 -134.6791 293.4189)" class="st3" width="107.5" height="0.8"/>
<rect x="624.3" y="490.2" transform="matrix(0.9113 -0.4117 0.4117 0.9113 -141.1232 325.9974)" class="st3" width="123.8" height="0.8"/>
<rect x="625" y="491.9" transform="matrix(0.9163 -0.4005 0.4005 0.9163 -139.1663 318.6443)" class="st3" width="135.4" height="0.8"/>
<rect x="625.9" y="492.4" transform="matrix(0.918 -0.3965 0.3965 0.918 -137.4364 320.6915)" class="st3" width="162" height="0.8"/>
<polygon class="st4" points="409,402.3 550.7,372.5 637,389 520.9,426.4 "/>
<path class="st0" d="M802.9,404.1c0,0,7.3,3,3,7.5s-169,52.2-169,52.2L802.9,404.1z"/>
<path class="st0" d="M407.5,290.2c0,0-30.6-1.8-27,19.6c0,0-0.7,3.8,2.7,5.5c0,0,0.1-1.6,3.1-1.1c1.1,0.2,2.2,0.2,3.3,0.2
	c1.5-0.1,2.9-0.7,4.1-1.7l0,0c0,0,8.6-3.6,12-17.6c0,0,2.5-3.1,2.4-3.9l-5.2,2.2c0,0,1.8,3.7,0.4,6.8c0,0-0.2-6.7-1.2-6.5
	c-0.2,0-2.7,1.3-2.7,1.3s3,6.5,0.7,11.2c0,0,0.9-8-1.7-10.7l-3.6,2.1c0,0,3.5,6.7,1.1,12.2c0,0,0.6-8.4-1.9-11.7l-3.3,2.6
	c0,0,3.3,6.6,1.3,11.1c0,0-0.3-9.8-2-10.5c0,0-2.9,2.5-3.3,3.6c0,0,2.3,4.8,0.9,7.3c0,0-0.9-6.5-1.6-6.5c0,0-2.9,4.3-3.2,7.2
	c0.1-2.7,1-5.4,2.5-7.7c-1.7,0.3-3.2,1.1-4.4,2.3c0,0,0.4-3.1,5.1-3.3c0,0,2.4-3.3,3-3.5c0,0-4.6-0.4-7.5,0.9c0,0,2.5-2.9,8.3-1.6
	l3.2-2.7c0,0-6.1-0.8-8.7,0.1c0,0,3-2.5,9.6-0.7l3.5-2.1c0,0-5.2-1.1-8.3-0.7c0,0,3.3-1.8,9.3,0.1l2.5-1.1c0,0-3.8-0.7-4.9-0.9
	c-1.1-0.1-1.2-0.4-1.2-0.4c2.4-0.4,4.9-0.1,7.2,0.8C402.2,292.5,407.6,290.6,407.5,290.2z"/>
<path class="st7" d="M379.8,340c0,0-23.9-1.4-21.1,15.3c0,0-0.6,3,2.1,4.3c0,0,0-1.3,2.5-0.8c0.9,0.1,1.7,0.2,2.6,0.1
	c1.2-0.1,2.3-0.5,3.1-1.3l0,0c0,0,6.7-2.8,9.3-13.8c0,0,1.9-2.4,1.9-3l-4,1.7c0,0,1.4,2.9,0.3,5.3c0,0-0.1-5.2-0.9-5.1
	c-0.2,0-2.1,1-2.1,1s2.4,5.1,0.6,8.8c0,0,0.7-6.2-1.3-8.4l-2.8,1.7c0,0,2.8,5.2,0.9,9.5c0,0,0.5-6.6-1.5-9.1l-2.6,2
	c0,0,2.6,5.2,1,8.7c0,0-0.2-7.6-1.6-8.2c0,0-2.3,2-2.6,2.8c0,0,1.8,3.8,0.7,5.7c0,0-0.7-5.1-1.3-5.1c0,0-2.2,3.4-2.5,5.7
	c0.1-2.1,0.8-4.2,1.9-6c-1.3,0.2-2.5,0.9-3.4,1.8c0,0,0.4-2.4,4-2.6c0,0,1.9-2.6,2.4-2.7c0,0-3.6-0.3-5.8,0.7c0,0,1.9-2.2,6.5-1.3
	l2.5-2.1c0,0-4.8-0.6-6.8,0.1c0,0,2.3-2,7.5-0.5l2.8-1.7c0,0-4.1-0.9-6.5-0.6c0,0,2.6-1.4,7.3,0.1l2-0.9c0,0-3-0.6-3.9-0.7
	s-0.9-0.3-0.9-0.3c1.9-0.3,3.8-0.1,5.6,0.6C375.6,341.8,379.8,340.3,379.8,340z"/>
<path class="st7" d="M500.3,292.4c0,0-13.3-27.6-30.3-14c0,0-3.7,1.2-3.5,5.1c0,0,1.4-0.7,2.4,2.2c0.4,1,0.9,2,1.5,3
	c0.8,1.3,2,2.2,3.5,2.7l0,0c0,0,7.3,5.8,21.2,1.8c0,0,3.9,0.7,4.5,0.2l-4.4-3.4c0,0-2.4,3.4-5.8,3.7c0,0,5.8-3.4,5.1-4.2
	c-0.1-0.2-2.4-1.7-2.4-1.7s-4.2,5.8-9.4,6.1c0,0,7.4-3.1,8.5-6.7l-3.6-2.1c0,0-4.1,6.4-10.1,6.9c0,0,7.6-3.5,9.2-7.3l-3.8-1.6
	c0,0-4.1,6.1-9.1,6.6c0,0,8.4-5,8.2-6.9c0,0-3.6-1.3-4.8-1.2c0,0-3.1,4.3-6,4.3c0,0,5.3-3.9,4.9-4.6c0,0-5.2-0.4-7.9,0.8
	c2.5-1.2,5.2-1.8,7.9-1.6c-1.1-1.3-2.5-2.2-4.1-2.7c0,0,2.9-1.1,5.4,2.8c0,0,4,0.5,4.5,0.9c0,0-1.9-4.2-4.4-6.1c0,0,3.7,0.7,5.4,6.4
	l3.9,1.5c0,0-2.2-5.7-4.3-7.5c0,0,3.7,1.4,5.3,8l3.6,2.1c0,0-1.6-5.1-3.4-7.6c0,0,3.1,2,4.4,8.2l2.2,1.7c0,0-1.2-3.7-1.6-4.7
	c-0.4-1-0.2-1.2-0.2-1.2c1.5,1.9,2.5,4.2,2.8,6.6C495.7,288.9,500,292.6,500.3,292.4z"/>
<path class="st7" d="M767.5,267.1c0,0-10.4,28.9,11.2,31.4c0,0,3.4,1.7,6.1-1.1c0,0-1.5-0.5-0.1-3.3c0.5-1,0.9-2.1,1.1-3.2
	c0.3-1.5,0.2-3-0.5-4.4l0,0c0,0-1-9.3-13.6-16.4c0,0-2.3-3.2-3-3.4l0.6,5.6c0,0,4.1-0.6,6.7,1.5c0,0-6.5-1.7-6.6-0.7
	c0,0.2,0.5,2.9,0.5,2.9s7.1-1.1,11,2.4c0,0-7.4-3.1-10.8-1.4l1.1,4.1c0,0,7.4-1.5,12,2.3c0,0-7.9-2.9-11.7-1.4l1.6,3.9
	c0,0,7.3-1.3,11.1,1.9c0,0-9.5-2.5-10.6-1c0,0,1.6,3.5,2.5,4.2c0,0,5.2-0.8,7.3,1.2c0,0-6.5-1-6.7-0.3c0,0,3.3,4,6.1,5.1
	c-2.6-0.9-4.9-2.5-6.7-4.5c-0.2,1.7,0.2,3.4,0.9,4.9c0,0-2.8-1.3-1.7-5.8c0,0-2.5-3.2-2.5-3.9c0,0-1.7,4.3-1.3,7.4
	c0,0-2.1-3.2,0.8-8.4l-1.6-3.9c0,0-2.5,5.6-2.4,8.4c0,0-1.6-3.6,2.1-9.4l-1-4c0,0-2.5,4.7-3,7.8c0,0-0.8-3.6,2.8-8.9l-0.4-2.8
	c0,0-1.8,3.4-2.2,4.5c-0.4,1-0.7,1-0.7,1c0.3-2.4,1.3-4.7,2.8-6.6C768.4,272.7,767.9,267.1,767.5,267.1z"/>
<path class="st7" d="M825.2,367.4c0,0-13.3-27.6-30.3-14c0,0-3.7,1.2-3.5,5.1c0,0,1.4-0.7,2.4,2.2c0.4,1.1,0.9,2.1,1.5,3
	c0.8,1.3,2,2.2,3.4,2.7l0,0c0,0,7.3,5.8,21.2,1.8c0,0,3.9,0.7,4.5,0.2L820,365c0,0-2.4,3.4-5.8,3.7c0,0,5.8-3.4,5.1-4.2
	c-0.1-0.2-2.4-1.7-2.4-1.7s-4.2,5.8-9.4,6.1c0,0,7.4-3.1,8.6-6.7l-3.6-2.1c0,0-4.1,6.4-10.1,6.9c0,0,7.6-3.6,9.3-7.4l-3.9-1.6
	c0,0-4.1,6.1-9.1,6.6c0,0,8.4-5,8.2-6.9c0,0-3.6-1.3-4.8-1.2c0,0-3.1,4.3-6,4.3c0,0,5.3-3.9,4.9-4.6c0,0-5.2-0.4-7.9,0.8
	c2.5-1.2,5.2-1.8,7.9-1.6c-1.1-1.3-2.5-2.2-4.1-2.7c0,0,2.9-1.1,5.4,2.8c0,0,4,0.5,4.5,0.9c0,0-1.9-4.2-4.4-6.1c0,0,3.7,0.8,5.4,6.5
	l3.9,1.5c0,0-2.2-5.7-4.3-7.5c0,0,3.7,1.4,5.3,8l3.6,2.1c0,0-1.6-5.1-3.4-7.6c0,0,3.1,2,4.4,8.2l2.2,1.6c0,0-1.2-3.7-1.6-4.7
	c-0.4-1-0.2-1.2-0.2-1.2c1.5,1.9,2.5,4.2,2.8,6.6C820.5,364,824.9,367.7,825.2,367.4z"/>
<ellipse class="st7" cx="388.8" cy="699.6" rx="18.5" ry="3.2"/>
<ellipse class="st7" cx="288.5" cy="676.3" rx="18.5" ry="2.1"/>
<ellipse class="st7" cx="454" cy="726.6" rx="18.5" ry="2.1"/>
<ellipse class="st7" cx="834.2" cy="655.1" rx="18.5" ry="2.1"/>
<ellipse class="st7" cx="773.8" cy="665.7" rx="18.5" ry="2.1"/>
<ellipse class="st7" cx="710.3" cy="695.4" rx="21.9" ry="3.8"/>
<path class="st0" d="M720.1,657.6c0,0-30.5,15.7-14.7,34.3c0,0,1.5,4,5.8,3.7c0,0-0.9-1.6,2.4-2.8c1.2-0.4,2.3-1,3.3-1.7
	c1.4-1,2.4-2.3,2.9-3.9l0,0c0,0,6.2-8.3,1.4-23.8c0,0,0.6-4.4,0.1-5.1l-3.7,5.1c0,0,3.8,2.6,4.3,6.3c0,0-4-6.3-4.8-5.6
	c-0.2,0.1-1.8,2.8-1.8,2.8s6.6,4.5,7.1,10.3c0,0-3.7-8.2-7.8-9.4l-2.3,4.1c0,0,7.2,4.4,8,11c0,0-4.2-8.4-8.5-10.1l-1.7,4.4
	c0,0,7,4.4,7.6,10c0,0-5.8-9.2-7.9-8.9c0,0-1.3,4.1-1.1,5.4c0,0,4.9,3.3,5,6.5c0,0-4.6-5.8-5.3-5.4c0,0-0.3,5.8,1.1,8.8
	c0,0-2.4-4.3-2-8.8c-1.4,1.2-2.4,2.9-2.9,4.7c0,0-1.3-3.2,3-6.1c0,0,0.4-4.5,0.9-5.1c0,0-4.7,2.3-6.7,5.1c0,0,0.7-4.2,7.1-6.3
	l1.6-4.4c0,0-6.3,2.7-8.3,5.1c0,0,1.4-4.1,8.8-6.1l2.2-4c0,0-5.6,1.9-8.4,4c0,0,2.1-3.6,9.1-5.2l1.8-2.5c0,0-4.1,1.5-5.2,2
	c-1.1,0.5-1.4,0.3-1.4,0.3c2.1-1.8,4.6-2.9,7.3-3.3C716.3,662.8,720.4,657.8,720.1,657.6z"/>
<linearGradient id="SVGID_1_" gradientUnits="userSpaceOnUse" x1="727.5226" y1="294.5116" x2="727.5226" y2="698.507" gradientTransform="matrix(1 0 0 -1 -88.58 772.58)">
	<stop  offset="0" style="stop-color:#808080;stop-opacity:0.25"/>
	<stop  offset="0.54" style="stop-color:#808080;stop-opacity:0.12"/>
	<stop  offset="1" style="stop-color:#808080;stop-opacity:0.1"/>
</linearGradient>
<path class="st8" d="M774.4,377.8c-5.3-14.3-34.2-15.6-46.8-12c-8.9,2.6-27.8,5.5-37.8,7l-0.7-0.6c1.3-0.4,1.3-1.3,1.2-2.7
	c-0.1-1.9-0.1-3.7,0.1-5.6c6.2,1.9,11.7-2.6,11.7-2.6l0,0c7.2-3.2,5.3-17,6.7-20.8c1-2.8,2.2-19.4,2.7-27.7h0.1l0.1-2.8
	c0.1-1.2,0.1-1.9,0.1-1.9s0.7-20.2,2.1-24.3c1.3-3.8,2.3-22.7,2.5-25.8c0-0.3,0-0.4,0-0.4l-0.1-1.8c0.1-1.3,0.1-2.7,0.1-4.2
	c0-6.9-0.7-15.6-0.8-17c0-0.2,0-0.4,0-0.7c0.1-2.9-0.3-17.7-12.8-23.2c-4.6-2.1-10.2-4.5-15.5-6.9c-1.4-12-4.5-23.8-4.3-35.9
	c0-1.8,0.2-3.6,0.3-5.4c0,0.5-0.1,1.1-0.1,1.6c0,1.2,0,2.3,0,3.5c0.5-15.1,6.2-30.2,5.6-44.9c0,1.4-0.2,2.9-0.3,4.3
	c0.3-5-0.2-10-1.5-14.8c-0.5-1.7-1.1-3.5-2.5-4.6c-1.3-0.9-2.8-1.5-4.4-1.7c-3.8-1-7.7-1.7-11.6-2.2c-0.6-1.8-1.5-3.5-2.6-5.1
	c-8.2-11.2-20.3-21.7-34.5-24.1c-7.2-1.2-15.4-0.2-20.3,4.9c-0.5,0.5-1,0.9-1.4,1.4c-2.6,3.1-3.8,7.2-6.4,10.4
	c-0.2,0.2-0.4,0.4-0.6,0.6c-5.3,4.7-13.5,5.7-19.3,9.9c-1,0.8-2,1.6-2.9,2.5c-2.4,2.3-4.5,4.9-6.3,7.7c-2.6,3.7-5.3,7.6-6.2,12
	c-1.7,8.9,4.3,17.3,5.5,26.2c2.5,19.9-19.6,37.6-15.4,57.3c1.1,4.8,3.6,9.3,7.1,12.7c-8.6,7.8-15.9,15.4-15.9,15.4v0.5h-1.4l0.1,1.6
	h-0.1l0.7,8.7l-0.7,12.7c0,0,0,0.1,0,0.4v0.1v0.3c0,0,0,0.1,0,0.4h0c0.2,4.7,1.2,21.4,2.4,25c1.4,4.1,2.1,24.3,2.1,24.3
	s1.5,28.6,2.9,32.4c1.4,3.8-0.6,17.5,6.7,20.8l0,0c2.1,1.6,4.6,2.7,7.3,3c-0.4,3-0.1,5.2,1.1,5.9c0.5,0.3,1.1,0.5,1.7,0.5
	c-0.5,0.7-0.9,1.5-1.3,2.3c-2.9-0.3-5.7-1-8.4-2c-7.8-3.2-33.7-10.5-41.2-5.4c-7.5,5.1-25.6,9.7-17.3,30.2c8.4,20.5,12.3,21,12.3,21
	c2.6,1.9,4.8,4.1,6.7,6.7c2.5,3.8,25.9,12.4,31.8,12.4c2.5,0,5,0.1,7.4,0.4c0,0-6.4,5.6-5.5,8.8c0.8,3.2-1.9,29.1-1.9,29.1
	s6.4,6.5,9.2-2l0.1,0.1c0.5,0.7,3.3,3.9,8.5-0.1c2.1-1.6,4.4-3.1,6.8-4.3l25.4-3.6c2.6-0.2,5.3-0.2,7.9-0.1c4,0.3,8-2.1,10.5-3.9
	c5.3,2,11.2,4.2,14,5c5.7,1.6,31.9,8.6,38,6.4c1.3-0.5,2.4-1.3,3.3-2.4l5.8,0.2l-2.7,0.5c0,0,5.3,0.1,12.6,0.2l-0.3,0.2l9.1-0.1
	c13.3,0.1,28.2,0.2,30.2-0.3c3.1-0.7,19.1-0.2,23.8,0h1.3c0,0,17.6-3.5,10.3-21.3c-5.6-13.7-22.7-17.7-30.3-18.8
	c2.1-0.4,4-0.8,5.2-0.9c5.3-0.8,15.6-5.6,16.4-7.3c0.8-1.7,9.5-6.4,11.7-9.2C773.4,411.4,779.7,392.1,774.4,377.8z M629,417.8
	l-0.9,0.3l-0.6,0.2l-1.1,1.1c-0.9-0.6-1.8-1.2-2.8-1.9C625.4,417.6,627.2,417.7,629,417.8z M705.7,440.5L705.7,440.5z"/>
<path class="st9" d="M680.3,332.9c0,0,12.3,32.2,19.3,29s5.1-16.9,6.4-20.7c1.3-3.8,2.8-32.2,2.8-32.2s0.7-20.1,2-24.2
	c1.2-3.7,2.2-22.6,2.4-25.6c0-0.3,0-0.4,0-0.4l-1.3-23.3l-7.5-1.9l-17.4,6.4l-2.4,13.8l-0.9,5.4l-0.4,2.3L680.3,332.9z"/>
<path class="st3" d="M684.4,327.5c0,0,11.8,9.6,15.3,10.5s5.7,8.3,5.7,8.3"/>
<path class="st9" d="M584,334.3c0,0-12.3,32.2-19.3,29c-7-3.2-5.1-16.9-6.4-20.7c-1.3-3.8-2.8-32.2-2.8-32.2s-0.7-20.1-2-24.2
	c-1.2-3.7-2.2-22.6-2.4-25.6c0-0.3,0-0.4,0-0.4l1.3-23.3l7.5-1.9l17.4,6.4l2.4,13.8l0.9,5.4l0.4,2.3L584,334.3z"/>
<rect x="636.7" y="162" class="st10" width="27.5" height="42.8"/>
<rect x="636.7" y="162" class="st3" width="27.5" height="42.8"/>
<path class="st11" d="M579.2,366.4c0,0-9.4,10.3-5.9,12.2c3.5,1.9,26,37,26,37s74.1,9.1,88-4.6c14-13.7,13.7-38.1,13.7-38.1
	s-11.2,2.4-12.4,1.1c-1.2-1.3-7.9-7.6-7.9-7.6S585.6,360.6,579.2,366.4z"/>
<path class="st12" d="M579.2,366.4c0,0-9.4,10.3-5.9,12.2c3.5,1.9,26,37,26,37s74.1,9.1,88-4.6c14-13.7,13.7-38.1,13.7-38.1
	s-11.2,2.4-12.4,1.1c-1.2-1.3-7.9-7.6-7.9-7.6S585.6,360.6,579.2,366.4z"/>
<path class="st9" d="M712.5,235.9l-24.1,19.3l-7.3,0.5l-2.7,0.2l-45,3.3l-46.7-3.4l-6.9-0.5l-8.9-0.6l-18.5-17.7
	c0,0,13.1-14,24.6-23.5c4.5-3.7,8.8-6.8,11.9-8l0.5-0.2c2-0.8,3.7-2,5.1-3.6c9.1-9.3,17.4-32.4,17.4-32.4s40-20.7,35.2,6.4
	c-4.8,27.1,18,20.4,18,20.4l7.5,3.4l3,1.4l7.6,3.5l17.1,7.8C713.6,218.4,712.5,235.9,712.5,235.9z"/>
<circle class="st3" cx="631.5" cy="155.4" r="36"/>
<path class="st3" d="M712.6,261.5H551c0-0.3,0-0.4,0-0.4l1.3-23.3c0,0,13.1-14,24.6-23.5l101.4-4l4.7-5l17.1,7.8
	c13.4,6.2,12.3,23.6,12.3,23.6S714.3,256.9,712.6,261.5z"/>
<path class="st13" d="M712.6,260.7H551c0-0.3,0-0.4,0-0.4l1.3-23.3c0,0,13.1-14,24.6-23.5l101.4-4l4.7-5l17.1,7.8
	c13.4,6.2,12.3,23.6,12.3,23.6S714.3,256.1,712.6,260.7z"/>
<path class="st3" d="M605.6,195.2c0,0,25.5,32.5,59.4-0.7s3.8,73.9,3.8,73.9l-73.3,8.7L605.6,195.2z"/>
<path class="st13" d="M605.6,196.8c0,0,25.5,32.5,59.4-0.7s3.8,73.9,3.8,73.9l-73.3,8.7L605.6,196.8z"/>
<path class="st3" d="M675.5,202.5l2.7,41.1l2.9,13.7l2.2,10.5c0,0,5.6,80.5,4,84.5c-1.6,4,0.8,7.2,1.1,9.4s-0.3,7.5-0.1,9.9
	c0.3,2.4,0,3.5-6.2,2.6c-6.2-0.9-14.8-2.4-14.8-2.4s-21.7,1.6-29.2-1.1c-7.5-2.7-21.7-2.7-21.7-2.7s-21.5,0.5-28.4-0.3
	c-7-0.8-10.7,8.6-15.3,5.9c-4.6-2.7,5.4-28.7,8.6-36.2c3.2-7.5-4.3-26.6-4.3-26.6l9.7-53.6l2.1-12.1v-38.2l0.5-0.2
	c2-0.8,3.7-2,5.1-3.6l2.4,38.4l75.7,2.7v-43.3"/>
<path class="st13" d="M675.5,200.9l2.7,41.1l2.9,13.7l2.2,10.5c0,0,5.6,80.5,4,84.5c-1.6,4,0.8,7.2,1.1,9.4s-0.3,7.5-0.1,9.9
	c0.3,2.4,0,3.5-6.2,2.6c-6.2-0.9-14.8-2.4-14.8-2.4s-21.7,1.6-29.2-1.1c-7.5-2.7-21.7-2.7-21.7-2.7s-21.5,0.5-28.4-0.3
	c-7-0.8-10.7,8.6-15.3,5.9c-4.6-2.7,5.4-28.7,8.6-36.2s-4.3-26.6-4.3-26.6l9.7-53.6l2.1-12.1v-38.2l0.5-0.2c2-0.8,3.7-2,5.1-3.6
	l2.4,38.4l75.7,2.7v-43.3"/>
<path class="st3" d="M684.2,115.1c-0.5-1.7-1.1-3.4-2.4-4.6c-1.3-0.9-2.7-1.5-4.3-1.7c-3.7-1-7.4-1.7-11.2-2.1
	c-0.5-1.8-1.4-3.5-2.4-5c-7.9-11.1-19.6-21.6-33.3-24c-7.2-1.2-15.5-0.1-20.1,5.5c-2.5,3.1-3.6,7.2-6.2,10.3
	c-4.9,5.9-13.8,6.7-20,11.3c-3.3,2.4-5.7,5.9-8,9.3c-2.5,3.7-5.1,7.5-5.9,11.9c-1.6,8.8,4.2,17.2,5.3,26c2.4,19.8-18.8,37.4-14.8,57
	c2.3,11.4,12.9,19.4,23.8,23.5c3.8,1.4,8.2,2.9,10,6.6c0.8,1.6,0.9,3.5,1.7,5.1c2.5,5.4,10.9,5.6,15.4,1.7c4.5-4,5.9-10.3,6.4-16.3
	c2.2-26-8.3-51.8-7.1-77.9c0.4-7.9,2.6-16.9,9.7-20.4c9.5-4.8,21,3.2,31.5,1.7c5,12.1,6,25.4,3,38.1c-1.7,6.9-4.5,13.7-4.8,20.8
	c-0.3,10.9,5.6,20.9,10.7,30.5c1.1,1.8,1.8,3.8,2.1,5.9c0.1,2.1-0.3,4.2-1.2,6.2c-2.9,7.7-7.8,14.9-8.4,23.2c-0.2,1,0.1,1.9,0.6,2.8
	c0.6,0.5,1.3,0.9,2.1,0.9c8.7,1.5,16.2-6.2,20.5-13.9c4.7-8.5,7.5-18,8.1-27.8c0.9-16.4-5-32.5-4.6-48.9
	C680.7,151.9,689.1,133.1,684.2,115.1z"/>
<path class="st10" d="M685,114.3c-0.5-1.7-1.1-3.4-2.4-4.6c-1.3-0.9-2.7-1.5-4.3-1.7c-3.7-1-7.4-1.7-11.2-2.1
	c-0.5-1.8-1.4-3.5-2.4-5c-7.9-11.1-19.6-21.6-33.3-24c-7.2-1.2-15.5-0.1-20.1,5.5c-2.5,3.1-3.6,7.2-6.2,10.3
	c-4.9,5.9-13.8,6.7-20,11.3c-3.3,2.4-5.7,5.9-8,9.3c-2.5,3.7-5.1,7.5-5.9,11.9c-1.6,8.8,4.2,17.2,5.3,26c2.4,19.8-18.8,37.4-14.8,57
	c2.3,11.4,12.9,19.4,23.8,23.5c3.8,1.4,8.2,2.9,10,6.6c0.8,1.6,0.9,3.5,1.7,5.1c2.5,5.4,10.9,5.6,15.4,1.7s5.9-10.3,6.4-16.3
	c2.2-26-8.3-51.8-7.1-77.9c0.4-7.9,2.6-16.9,9.7-20.4c9.5-4.8,21,3.2,31.5,1.7c5,12.1,6,25.4,3,38.1c-1.7,6.9-4.5,13.7-4.8,20.8
	c-0.3,10.9,5.6,20.9,10.7,30.5c1.1,1.8,1.8,3.8,2.1,5.9c0.1,2.1-0.3,4.2-1.2,6.2c-2.9,7.7-7.8,14.9-8.4,23.2c-0.2,1,0.1,1.9,0.6,2.8
	c0.6,0.5,1.3,0.9,2.1,0.9c8.7,1.5,16.2-6.2,20.5-13.9c4.7-8.5,7.5-18,8.1-27.8c0.9-16.4-5-32.5-4.6-48.9
	C681.5,151.1,689.9,132.3,685,114.3z"/>
<polygon class="st14" points="667.2,470.7 699.2,471.7 694.6,448 670.1,450.4 "/>
<path class="st11" d="M766.2,414.6c-2.1,2.7-10.5,7.5-11.3,9.1c-0.8,1.6-10.7,6.4-15.8,7.2c-5.1,0.8-21.2,4.3-24.1,6.2
	c-2.1,1.4-19.1,5.6-30.3,8c-3,0.7-6.1,1.3-9.2,1.7c-4.8,0.3-57.7-17.7-57.7-17.7l10.2-10.5l0.6-0.2c2.9-1,16.2-5.5,23.6-7.6
	c8.3-2.4,18-12.3,18-12.3s14.2-4.8,16.1-5.4c1.9-0.5-4.8-18.8-4.8-18.8s30.9-4.3,42.9-7.9c12.1-3.6,40-2.3,45.1,11.9
	C774.5,392.5,768.4,411.9,766.2,414.6z"/>
<path class="st13" d="M625.6,459.9c0,0-6.2,6.4-12.3,5.9s-27.8,1.6-27.8,1.6c-3.9,1.6-7.6,3.7-10.9,6.3c-5,4-7.7,0.8-8.2,0.1
	l-0.1-0.1c-2.7,8.5-8.9,2-8.9,2s2.7-25.8,1.9-29c-0.8-3.2,5.3-8.7,5.3-8.7l7.2-1.8l18.4-4.7l26.3,9.1L625.6,459.9z"/>
<path class="st3" d="M571.8,436.2l-5.4,37.7l-0.1-0.1c-2.7,8.5-8.9,2-8.9,2s2.7-25.8,1.9-29c-0.8-3.2,5.3-8.7,5.3-8.7L571.8,436.2z"
	/>
<path class="st3" d="M609.8,329c0,0,14.2,4.8,26.6,0"/>
<path class="st3" d="M658.3,338.1c0,0,5.9,2.9,10.5,0"/>
<path class="st3" d="M658.3,345.1c0,0,9.9,1.3,11.8-1.4"/>
<path class="st3" d="M655.1,360.1c0,0,18.6-2.4,23.3-5.6"/>
<path class="st3" d="M598.2,354.5c0,0,10.5,5.9,18.2,5.6"/>
<path class="st3" d="M684.6,445.1c-3,0.7-6.1,1.3-9.2,1.7c-4.8,0.3-57.7-17.7-57.7-17.7l10.2-10.5l0.6-0.2c1.6,1.1,2.9,2.1,3.9,2.8
	c4.4,3.5,8.7-1.1,10.3-1.1c1.6,0,15.6,11.5,15.6,11.5s12.9,3,15,5.6c2.1,2.7,9.7,2.1,11,4C684.7,441.9,684.8,443.4,684.6,445.1z"/>
<path class="st11" d="M585.5,375.4c0,0-13,0.7-20.5-2.4s-32.5-10.5-39.7-5.3s-24.7,9.7-16.6,30.1c8,20.4,11.8,20.9,11.8,20.9
	c2.5,1.9,4.7,4.1,6.4,6.7c2.4,3.8,25,12.3,30.6,12.3c5.6,0,15.6,0,29.5,9.7c13.9,9.7,26.6,10.7,26.6,10.7s17.7,7.2,23.2,8.9
	c5.5,1.6,30.7,8.6,36.6,6.4s9.7-15.6,9.7-15.6s2.7-12.1,1.3-13.9c-1.3-1.9-8.9-1.3-11-4s-15-5.6-15-5.6s-13.9-11.5-15.5-11.5
	c-1.6,0-5.9,4.6-10.3,1.1c-8.8-6.5-18.1-12.5-27.8-17.7C594.5,400.6,585.5,375.4,585.5,375.4z"/>
<path class="st3" d="M559.3,383.2c4.7-1,9.6,0.3,13.2,3.5c6.4,5.4,28.1,16.1,28.1,16.1"/>
<path class="st3" d="M720.3,382.8c0,0-28.7,4.3-34.1,10.2"/>
<path class="st13" d="M753.3,471.7H752c-4.5-0.2-19.9-0.6-22.9,0c-3.5,0.8-49.6,0-49.6,0l9-1.9c0,0-3.3-11.7-1.2-12.7
	c0,0-12.1-8-3-13.3c9.1-5.4,18.9-3.1,18.9-3.1l22.9-7.7l4.4-1.5c0,0,25.8,1.3,32.7,19.1C770.2,468.2,753.3,471.7,753.3,471.7z"/>
<path class="st3" d="M753.3,471.7H752c7.5-6.2,24.4-25-25.9-38.7l4.4-1.5c0,0,25.8,1.3,32.7,19.1
	C770.2,468.3,753.3,471.7,753.3,471.7z"/>
<circle class="st11" cx="705.9" cy="449.4" r="1.4"/>
<circle class="st11" cx="697.8" cy="451.8" r="1.4"/>
<g class="st15">
	<path d="M657.9,154.1c0.3-8.9-1.3-17.7-4.6-25.9c-10.5,1.6-21.9-6.5-31.5-1.7c-7.1,3.6-9.3,12.5-9.7,20.4c-0.1,2.1-0.1,4.2-0.1,6.3
		c0-0.7,0-1.5,0.1-2.2c0.4-7.9,2.6-16.9,9.7-20.4c9.5-4.8,21,3.2,31.5,1.7C656.1,139.2,657.7,146.6,657.9,154.1z"/>
	<path d="M576.8,152.6c0.1-1.8,0.1-3.5-0.1-5.3c-0.9-7.1-4.7-13.9-5.4-20.8c-0.9,8.3,4.4,16.3,5.4,24.8
		C576.8,151.8,576.8,152.2,576.8,152.6z"/>
	<path d="M619.2,224.9c-0.5,6-1.9,12.4-6.4,16.3s-12.9,3.7-15.4-1.7c-0.8-1.6-0.9-3.5-1.7-5.1c-1.8-3.7-6.2-5.1-10-6.6
		c-10.9-4.1-21.4-12.1-23.8-23.5c-0.2-1-0.4-2.1-0.4-3.1c-0.2,2.4-0.1,4.8,0.4,7.2c2.3,11.4,12.9,19.4,23.8,23.5
		c3.8,1.4,8.2,2.9,10,6.6c0.8,1.6,0.9,3.5,1.7,5.1c2.5,5.4,10.9,5.6,15.4,1.7s5.9-10.3,6.4-16.3c0.2-3.1,0.3-6.3,0.2-9.5
		C619.4,221.3,619.3,223.1,619.2,224.9z"/>
	<path d="M681.4,165.9c0,1.2,0,2.3,0,3.5c0.5-15,5.9-30,5.4-44.7C686.4,138.2,681.7,152.1,681.4,165.9z"/>
	<path d="M664.1,226.5c0.2-1,0.3-1.9,0.2-2.9c-0.3-2.1-1.1-4.1-2.1-5.9c-4.7-8.9-10-17.9-10.6-27.7c0,0.4-0.1,0.8-0.1,1.3
		c-0.3,10.9,5.6,20.9,10.6,30.5C663,223.2,663.7,224.8,664.1,226.5z"/>
	<path d="M686,214.8c-0.6,9.8-3.4,19.2-8.1,27.8c-4.3,7.7-11.8,15.4-20.5,13.9c-0.8-0.1-1.5-0.4-2.1-0.9c-0.2-0.2-0.3-0.4-0.4-0.6
		c-0.1,0.6-0.2,1.3-0.2,1.9c-0.2,1,0.1,1.9,0.6,2.7c0.6,0.5,1.3,0.9,2.1,0.9c8.7,1.5,16.2-6.2,20.5-13.9c4.7-8.5,7.5-18,8.1-27.8
		c0.1-1.9,0.1-3.8,0-5.6C686,213.7,686,214.3,686,214.8z"/>
</g>
<path class="st16" d="M687.3,457.1c0,0,20.4,8.5,33.8-10.4"/>
<path class="st16" d="M691.3,472.1c0,0,16.6-10.8,37.8-0.4"/>
<path class="st16" d="M579.9,469.6c0,0,7-15.8,25.6-3.7"/>
<path class="st3" d="M557.3,236.5l14.2-12.9c0,0,55.2-3.6,57.5,15.2c0,0,19.6-22.3,60.8-17.3l17.4,13.9l-48.2,21.1l-46.8,16.2
	l-34.5-15.4L557.3,236.5z"/>
<path class="st2" d="M557.3,237.3l14.2-12.9c0,0,55.2-3.6,57.5,15.2c0,0,19.6-22.3,60.8-17.3l17.4,13.9l-48.2,21.1l-46.8,16.2
	l-34.5-15.4L557.3,237.3z"/>
<polygon class="st3" points="551,238.9 557.3,314.3 624.1,317.7 621.2,242.6 621.1,241.4 "/>
<polygon class="st0" points="551,237.3 557.3,312.7 624.1,316.1 621.2,241 621.1,239.8 "/>
<polygon class="st3" points="710.3,237.3 641.4,247.7 641.4,323.4 708.8,313.7 "/>
<polygon class="st0" points="710.3,235.7 641.4,246.1 641.4,321.8 708.8,312.1 "/>
<polygon class="st4" points="694.1,254.2 656.8,258.3 657.7,271 694.1,267.1 "/>
<path class="st9" d="M560.9,353.1l3.8,10.2c0,0,5.6,4.8,11.8,2.4c6.2-2.4,11.5-3.6,14.2-6s6.4-14.2,6.4-14.2s3.8-12.9,7.5-16.1
	c3.8-3.2,13.7-47.6,0-43.2s-24.1,44.6-24.1,44.6s-2.4,2.9-5.9,3.2c-3.5,0.3-10.5-0.5-11.8,2.4C561.5,339.4,556.9,347.2,560.9,353.1z
	"/>
<path class="st3" d="M641.4,247.7c-7.2,1.6-14.7-0.3-20.2-5l2.9,75.1c0,0,6.8,7.4,17.3,5.7V247.7z"/>
<path class="st0" d="M641.4,246.1c-7.2,1.6-14.7-0.3-20.2-5l2.9,75.1c0,0,6.8,7.4,17.3,5.7V246.1z"/>
<path class="st3" d="M641.4,246.1c-7.2,1.6-14.7-0.3-20.2-5l2.9,75.1c0,0,6.8,7.4,17.3,5.7V246.1z"/>
<path class="st3" d="M643,237.6c0,0,28-8.6,35.3-7.4"/>
<path class="st3" d="M611.7,233.9c0,0-27.2-6.4-31.7-4.6"/>
<path class="st3" d="M660.7,238.7c0,0,18.7-6.9,25.5-3.6"/>
<path class="st3" d="M651.3,411.1c2.9-2.2,6-4.1,9.2-5.7c4.8-2.3,13.7-8.4,13.7-8.4"/>
<path class="st3" d="M579.9,329c0,0-11.8,9.6-15.3,10.5c-3.5,0.8-5.7,8.3-5.7,8.3"/>
<path class="st9" d="M703.4,351.7l-3.8,10.2c0,0-5.6,4.8-11.8,2.4c-6.2-2.4-11.5-3.6-14.2-6s-6.4-14.2-6.4-14.2s-3.8-12.9-7.5-16.1
	c-3.8-3.2-13.7-47.6,0-43.2c13.7,4.3,24.1,44.6,24.1,44.6s2.4,2.9,5.9,3.2s10.5-0.5,11.8,2.4C702.9,338,707.4,345.8,703.4,351.7z"/>
<path class="st3" d="M696.8,332.9c0,0,7.7,4.9,7.7,10.9"/>
<circle class="st9" cx="631.6" cy="153.7" r="36"/>
<path class="st10" d="M609,144c4.4-0.7,8.2-3.2,12.4-4.7c9.3-3.3,19.6-1,29.1,1.9c3.6,1.1,7.3,2.4,11.1,2.4s7.8-1.6,9.8-4.8
	c1.8-3,1.4-6.9-0.1-10.1c-1.5-3.2-4-5.7-6.6-8.1c-8.4-7.9-18.8-15.3-30.2-14.5c-4.6,0.3-9,2-13.3,3.8c-5.4,2.3-10.6,4.9-15.6,7.9
	c-3.9,2.2-11,5.2-13.3,9.4C587.2,136.4,601.1,145.2,609,144z"/>
<path class="st3" d="M671.4,135.5c-1.9,3.3-6,4.8-9.8,4.8s-7.5-1.2-11.1-2.4c-9.4-3-19.8-5.2-29.1-1.9c-4.2,1.5-8,4-12.4,4.7
	c-6.4,1-16.6-4.5-17.7-11.6c-1.2,8.1,10.6,15.1,17.7,14c4.4-0.7,8.2-3.2,12.4-4.7c9.3-3.3,19.6-1,29.1,1.9c3.6,1.1,7.3,2.4,11.1,2.4
	c3.8,0,7.8-1.5,9.8-4.8c1-1.8,1.4-3.9,1.1-5.9C672.4,133.2,672,134.4,671.4,135.5z"/>
<path class="st0" d="M869.4,510.6c0,0,4.8,6.2-2.2,15.7c-7,9.4-12.7,17.4-10.4,23.3c0,0,10.5-17.5,19.1-17.7
	C884.4,531.5,878.8,521.1,869.4,510.6z"/>
<path class="st3" d="M869.4,510.6c0.4,0.6,0.7,1.3,1,2c8.4,9.8,12.8,19,4.8,19.2c-7.5,0.2-16.5,13.6-18.6,17
	c0.1,0.3,0.2,0.5,0.2,0.8c0,0,10.5-17.5,19.1-17.7C884.4,531.6,878.8,521.1,869.4,510.6z"/>
<path class="st17" d="M878.2,518.6c0,2.2-0.2,4-0.5,4c-0.3,0-0.6-1.8-0.6-4c0-2.2,0.3-1.2,0.6-1.2S878.2,516.4,878.2,518.6z"/>
<path class="st17" d="M881.3,521.2c-1.9,1-3.6,1.7-3.8,1.4c-0.1-0.3,1.3-1.3,3.2-2.4c1.9-1.1,1.2-0.3,1.3,0
	C882.2,520.5,883.2,520.1,881.3,521.2z"/>
<path class="st0" d="M844.1,510.6c0,0-4.8,6.2,2.2,15.7s12.7,17.4,10.4,23.3c0,0-10.5-17.5-19.1-17.7
	C829.1,531.5,834.8,521.1,844.1,510.6z"/>
<path class="st3" d="M844.1,510.6c-0.4,0.6-0.7,1.3-1,2c-8.4,9.8-12.8,19-4.8,19.2c7.5,0.2,16.5,13.6,18.6,17
	c-0.1,0.3-0.2,0.5-0.3,0.8c0,0-10.5-17.5-19.1-17.7C829.1,531.6,834.8,521.1,844.1,510.6z"/>
<path class="st17" d="M835.3,518.6c0,2.2,0.2,4,0.5,4c0.3,0,0.6-1.8,0.6-4c0-2.2-0.3-1.2-0.6-1.2
	C835.5,517.4,835.3,516.4,835.3,518.6z"/>
<path class="st17" d="M832.2,521.2c1.9,1,3.6,1.7,3.8,1.4c0.1-0.3-1.3-1.3-3.2-2.4c-1.9-1.1-1.2-0.3-1.3,0
	C831.3,520.5,830.3,520.1,832.2,521.2z"/>
<ellipse class="st7" cx="856.8" cy="589.6" rx="49.9" ry="7.7"/>
<path class="st18" d="M882.4,541.1l-0.2,1.9l-0.3,2.8l-0.1,1.2l-0.3,2.8l-0.1,1.2l-0.3,2.7l-3.8,31.3c-0.3,2.8-4.9,5-10.4,5h-19.8
	c-5.5,0-10.1-2.2-10.4-5l-3.8-31.3l-0.3-2.7l-0.1-1.2l-0.3-2.8l-0.1-1.2l-0.3-2.8l-0.2-1.9c-0.2-1.6,2.3-2.9,5.4-2.9H877
	C880.2,538.2,882.6,539.5,882.4,541.1z"/>
<polygon class="st19" points="882.2,543.1 881.9,545.8 831.6,545.8 831.3,543.1 "/>
<polygon class="st19" points="881.7,547 881.4,549.7 832.1,549.7 831.8,547 "/>
<polygon class="st19" points="881.2,550.9 880.9,553.6 832.6,553.6 832.3,550.9 "/>
</svg>
